<mxfile host="app.diagrams.net" agent="Mozilla/5.0 (Windows NT 10.0; Win64; x64) AppleWebKit/537.36 (KHTML, like Gecko) Chrome/130.0.0.0 Safari/537.36" version="24.8.0">
  <diagram name="Page-1" id="C_7gXbwFmTerqQK8jRVb">
    <mxGraphModel dx="1050" dy="570" grid="1" gridSize="10" guides="1" tooltips="1" connect="1" arrows="1" fold="1" page="1" pageScale="1" pageWidth="850" pageHeight="1100" math="0" shadow="0">
      <root>
        <mxCell id="0" />
        <mxCell id="1" parent="0" />
        <mxCell id="rEkeLuR79YIxHpT1Y_Z6-1" value="ap-south-1" style="shape=mxgraph.ibm.box;prType=region;fontStyle=0;verticalAlign=top;align=left;spacingLeft=32;spacingTop=4;fillColor=none;rounded=0;whiteSpace=wrap;html=1;strokeColor=#919191;strokeWidth=2;dashed=0;container=1;spacing=-4;collapsible=0;expand=0;recursiveResize=0;" vertex="1" parent="1">
          <mxGeometry x="270" y="370" width="480" height="400" as="geometry" />
        </mxCell>
        <mxCell id="rEkeLuR79YIxHpT1Y_Z6-2" value="" style="sketch=0;points=[[0,0,0],[0.25,0,0],[0.5,0,0],[0.75,0,0],[1,0,0],[0,1,0],[0.25,1,0],[0.5,1,0],[0.75,1,0],[1,1,0],[0,0.25,0],[0,0.5,0],[0,0.75,0],[1,0.25,0],[1,0.5,0],[1,0.75,0]];outlineConnect=0;fontColor=#232F3E;fillColor=#ED7100;strokeColor=#ffffff;dashed=0;verticalLabelPosition=bottom;verticalAlign=top;align=center;html=1;fontSize=12;fontStyle=0;aspect=fixed;shape=mxgraph.aws4.resourceIcon;resIcon=mxgraph.aws4.lambda;" vertex="1" parent="rEkeLuR79YIxHpT1Y_Z6-1">
          <mxGeometry x="310" y="60" width="98" height="98" as="geometry" />
        </mxCell>
        <mxCell id="rEkeLuR79YIxHpT1Y_Z6-3" value="" style="sketch=0;points=[[0,0,0],[0.25,0,0],[0.5,0,0],[0.75,0,0],[1,0,0],[0,1,0],[0.25,1,0],[0.5,1,0],[0.75,1,0],[1,1,0],[0,0.25,0],[0,0.5,0],[0,0.75,0],[1,0.25,0],[1,0.5,0],[1,0.75,0]];outlineConnect=0;fontColor=#232F3E;fillColor=#8C4FFF;strokeColor=#ffffff;dashed=0;verticalLabelPosition=bottom;verticalAlign=top;align=center;html=1;fontSize=12;fontStyle=0;aspect=fixed;shape=mxgraph.aws4.resourceIcon;resIcon=mxgraph.aws4.api_gateway;" vertex="1" parent="rEkeLuR79YIxHpT1Y_Z6-1">
          <mxGeometry x="80" y="54" width="104" height="104" as="geometry" />
        </mxCell>
        <mxCell id="rEkeLuR79YIxHpT1Y_Z6-5" value="Amazon DynamoDB" style="sketch=0;outlineConnect=0;fontColor=#232F3E;gradientColor=none;strokeColor=#ffffff;fillColor=#232F3E;dashed=0;verticalLabelPosition=middle;verticalAlign=bottom;align=center;html=1;whiteSpace=wrap;fontSize=10;fontStyle=1;spacing=3;shape=mxgraph.aws4.productIcon;prIcon=mxgraph.aws4.dynamodb;" vertex="1" parent="rEkeLuR79YIxHpT1Y_Z6-1">
          <mxGeometry x="80" y="240" width="120" height="142" as="geometry" />
        </mxCell>
        <mxCell id="rEkeLuR79YIxHpT1Y_Z6-6" value="" style="endArrow=classic;html=1;rounded=0;entryX=0.646;entryY=0.3;entryDx=0;entryDy=0;entryPerimeter=0;" edge="1" parent="rEkeLuR79YIxHpT1Y_Z6-1" target="rEkeLuR79YIxHpT1Y_Z6-1">
          <mxGeometry width="50" height="50" relative="1" as="geometry">
            <mxPoint x="184" y="120" as="sourcePoint" />
            <mxPoint x="224" y="80" as="targetPoint" />
          </mxGeometry>
        </mxCell>
        <mxCell id="rEkeLuR79YIxHpT1Y_Z6-7" value="" style="sketch=0;outlineConnect=0;fontColor=#232F3E;gradientColor=none;fillColor=#DD344C;strokeColor=none;dashed=0;verticalLabelPosition=bottom;verticalAlign=top;align=center;html=1;fontSize=12;fontStyle=0;aspect=fixed;pointerEvents=1;shape=mxgraph.aws4.role;" vertex="1" parent="rEkeLuR79YIxHpT1Y_Z6-1">
          <mxGeometry x="337.72" y="30" width="42.55" height="24" as="geometry" />
        </mxCell>
        <mxCell id="rEkeLuR79YIxHpT1Y_Z6-9" value="" style="endArrow=classic;html=1;rounded=0;entryX=0;entryY=1;entryDx=0;entryDy=0;entryPerimeter=0;" edge="1" parent="rEkeLuR79YIxHpT1Y_Z6-1" source="rEkeLuR79YIxHpT1Y_Z6-5" target="rEkeLuR79YIxHpT1Y_Z6-2">
          <mxGeometry width="50" height="50" relative="1" as="geometry">
            <mxPoint x="300" y="210" as="sourcePoint" />
            <mxPoint x="360" y="170" as="targetPoint" />
          </mxGeometry>
        </mxCell>
        <mxCell id="rEkeLuR79YIxHpT1Y_Z6-10" value="IAM Role for lambda" style="text;html=1;align=center;verticalAlign=middle;resizable=0;points=[];autosize=1;strokeColor=none;fillColor=none;" vertex="1" parent="rEkeLuR79YIxHpT1Y_Z6-1">
          <mxGeometry x="207.72000000000003" y="27" width="130" height="30" as="geometry" />
        </mxCell>
        <mxCell id="rEkeLuR79YIxHpT1Y_Z6-11" value="API GW" style="text;html=1;align=center;verticalAlign=middle;resizable=0;points=[];autosize=1;strokeColor=none;fillColor=none;" vertex="1" parent="rEkeLuR79YIxHpT1Y_Z6-1">
          <mxGeometry x="95.38" y="158" width="70" height="30" as="geometry" />
        </mxCell>
        <mxCell id="rEkeLuR79YIxHpT1Y_Z6-17" value="Amazon CloudWatch" style="sketch=0;outlineConnect=0;fontColor=#232F3E;gradientColor=none;strokeColor=#ffffff;fillColor=#232F3E;dashed=0;verticalLabelPosition=middle;verticalAlign=bottom;align=center;html=1;whiteSpace=wrap;fontSize=10;fontStyle=1;spacing=3;shape=mxgraph.aws4.productIcon;prIcon=mxgraph.aws4.cloudwatch;" vertex="1" parent="rEkeLuR79YIxHpT1Y_Z6-1">
          <mxGeometry x="310" y="252" width="115" height="130" as="geometry" />
        </mxCell>
        <mxCell id="rEkeLuR79YIxHpT1Y_Z6-18" value="" style="endArrow=classic;html=1;rounded=0;exitX=0.75;exitY=0.425;exitDx=0;exitDy=0;exitPerimeter=0;" edge="1" parent="rEkeLuR79YIxHpT1Y_Z6-1">
          <mxGeometry width="50" height="50" relative="1" as="geometry">
            <mxPoint x="358.54" y="160" as="sourcePoint" />
            <mxPoint x="358.5" y="252" as="targetPoint" />
          </mxGeometry>
        </mxCell>
        <mxCell id="rEkeLuR79YIxHpT1Y_Z6-12" value="" style="shape=image;verticalLabelPosition=bottom;labelBackgroundColor=default;verticalAlign=top;aspect=fixed;imageAspect=0;image=data:image/png,iVBORw0KGgoAAAANSUhEUgAAAOoAAADOCAYAAAAwqZ5uAAAAAXNSR0IArs4c6QAAAARnQU1BAACxjwv8YQUAAAAJcEhZcwAADsMAAA7DAcdvqGQAACNpSURBVHhe7Z0JfBRF9sdfMrkJdxIuObxvBQ9QPJBVV1G8/v5BZUG5RBREEEQQQYQ/ICgIIoqi7rqy4P1RXDzAAwVFZb2WBUVFVuRKAgmB3Mmk//WrmjfTM0xCAgmZnn5fLbq7+nV3VU39+lVVV3diLAUJghDRxPqWgiBEMCJUQXAAIlRBcAAiVEFwACJUQXAAIlRBcAAiVEFwACJUQXAAIlRBcAAiVEFwACJUQXAAIlRBcAAiVEFwACJUQXAArhAqv8nHL/TJm32C04h6oUKUMTExVFFh+YPZYRewCFeIbFziUYlKSojGDsumtZ8V6e0KEafgIKL+Cw8mezFUXGTRkD47qazUolPOTKQBQ5tQqzYeilW3qtjYmCCvCg8sCJGEqwaTKiqI4hJi6OeNZTTy9kx69om9VF5ub/qKQIXIxFVCZSDM5ORYWrOqiO4ekElvv5YfJFgs7B5WEOobVwoVTVsIEf6zsKCCXn5xPz1wTzZ9+3Uxeb2wYMGKWIXIwJVCBRCrGQ0m8nhiaNcOL82anEMzJuXQ3twKHQ9Eq0Ik4FqhMhg3QoD3TEiMoU0bSmj4bZn0/II85W2hUkuL1QRRrVA/uF6ogQEks7Qs5WljY+iTFYU0dlgWvb+sQD97ZZGyYEW0wpFEhBoCe1c8ttmXZ9FfF+bR/Xdn039+KNUDTmovrLAiYhWOGCLUIIwAA/1Xi+LjYylzRzk9PHY3zXxoDxUXK2+qZzfB1gxKGb2KaIW6Q4RaDTCwlJwSSxvXl9LQvpn04iL0XzHaxOI0S2kSC3WFCLUKjGfFXGEjQiy95RZ98E4BjR+RTatWFmk79GuhT/bEglDbiFAPimnisgAhSI8nlnJzKmjh47k07u7d9N/Npfr5K3tUexCE2kCEWgPYY0Kzuv+aEEPb/yjXkyXmzsihkhJuAhtbQagtRKiHjGnuwmvGxcfSt1+X0PD+mfTa4v36BQD/63QK8bDC4SJCPUTgMANeU/VfVUmWFFv0xtL99MDIbPpytZmOaBcn7EWrwqEgQj1MjFhVUALE6HB8XCzt2e2leY/k6CZx5k6vjodAjUjFuwo1R4RaS5i+K9yskiIEq/qvO7aV05g7s2jBY7n6cQ5GkAXhUBCh1jrKW6L/ijWfLtEMvndoNr39aj4VFZpI0wwW4QrVQ4Ra6yjP6vvXNIvVemwMFSmPuuRv+3RzeNPGUhGpUCNEqHWMnuSvmrzop8ap/uvubC+tXV2k4nwGCtYs911FxOHLws3lIkKtY4wgjXfFOgTLIuXmrxGymfnEtm7lAHEi6DhTXm5FhFqPcH3Ep2A2/1zm/7qEvbLaK220w3m1C7KoyEuvvrKZNmzI0TcztyJCrXdi6Ldfy2jCyGx6/qk82r+vwi9gO9Es2FCBQpBer0WbNuXRgP6f0Lwn1lN5OcpFhCrUJ6r+JSbH0mcfFtGIgVm07I18VSnNa3Z6d5RWUOQLwS5QkJVVRKNGfUFDhnxK2dnFFB/n0WXkZkSoEYWlPIdFr/59P90/LIvWrS02sb5KiiVXbqdjBGrWIVCEwsJymj//PzRw4Cr697/36JcfgMs1qhGhRhRmiiE8zK6dXpozLYcenZJDf/xe7u+/svcxgtWrjsOk2+QVoai4nFas3EZ/6fsRvf76Ft0vjY2N1XkUDCLUCANChBZRR/E4Z/13pTT6jkxa/Fxe0GR/I1jnVGQWHXtSvtFs3ZpPgwd9SlOnfqP652X6i5BsyzclQYQa8aDSJiV7aOW7hXTP4Cx69618FRvovwK7CCIdI1CLMjOLaNz4r2jAgE9o584iSoj3+NMvAj0QEWoEw55VVW29jfnCi5/fT+PvyaLv1pUosap9PsFGokhZlCaY7YKCclq06CcaNGgVfbk2U1mZloFJvwi0MkSoEY72LjYNomm4fWs5PfLQHpo/M4eysyqowmsMYGsqfP3C4jSYNJWWemn16p3U55aPaPHiTVSs+qX8x7mQRXGiVSNCdQAQoBGhqdB4dJOQEEP/+qqERgzKpKUv5lNZWeDxhl0oAcHUPXyt0PRu31FIQ4Z8RhMmrKN85VE9HjRzA3ZqzReEyhChOghTqQOCwCIuLkb3W++9I0t/NBwV3rf7iME3Bnv6cNPYvbtYDxL17/+JHjRCWjntIsyaIUJ1IMYT+TZUuxjre3O8tGh+Hj10Xzb9tKHU9F/94mFh176CQwWKUFjopVdf3UwDBqyilSu3qaY50gwL9qBCTRGhOpZA85JB/3XLr+U0aXQ2PTVnLxXkV+ipeLCpK5EyWMdkjfXrc6hXrxW0YMEGKipCP5Sfh9q9qVBTRKgOx3hXeCksTZMzMdlDX60pouEDsvQ3nNB/tXO4ggkWqFlu215I99zzOY0Y8bn2qHgGbPrMAY8r3vTQEaFGFT5B6McdROVlFr25NJ/Gjcimz1eZj4XzCLFpDRshVRcIlEUKEWJ1T04xzZ79Aw0auIo2bsz1idHYBW4iwuEiQo0yIAwIiJdoDmfvKqf5j+bStAl76Pct5ab/qsVkbA7mYVmgLDqYFxd7afnyrTSg/ypatux3/XaL2WfOJQKtXVwlVF15qlExnQ6LBEudZZVd/LGrnzeW0eg7s+jZJ/bqv0xnF1W4MkGcPd7rxQfaiDZv3ke9e6+kWbO+1xMYzPPQ4OsKtYtrhIrv7sbGouKhIvkia9DsczLIMwTnVc3VlJRYWvNJEQ27LZPeejWfykoDgmW7YIwIsdy2vYDGjPmS7rjjU8rPL9P9ULYXkdYtrhAq6k5iItHMJzPogkuSUecUqGDGk5jKFlpBoweIJyAgk0/8NfVX/r6PJo7Opq+/KA56nBMoE2BRbm4JLVy4kW6//VNaty5b7WNPHWgOC3VL1AuVKx7qU4tWHrprVBOa+lgatWgd569oprIZu2iG88llggkI27d56bGpOXpKYnYWPhYeEF9ZmUUffrid+vX7mJYu/UV5X1OOOBZFxXZC3eOapi9XLEix/THxNHN+Oo0c35QSlKflie0g2sV6ACq7mI744/pSGj0kS3talAEE+9VXmfTQ5HUhz0NNOYpIjywuafpyxfJVNN1fJTq7SxI9/mwG3dgnVW8bMWsTXSmjWbRcJpxH5SspLgE79KYG3yP2qIBILhcRaP3gGo8KTOVUK6puYqQS640ax9INNzdS/dd0LVzEofJyfXSDYFmc4bLJcaZMfIbCEcdVQjUEexKA+of+670TmtFDs9IotWEMeStMPNdiI1i96kpEpPWLC4VqMN7VBLNtJHnMcfH0xPMtaejIJpSYiC8pmGeHxs7FShXqFdcKNRzKZ2pRYoDpou7JNHNBOvW4LlXHYcAJYjWeOLqbw0LkIUL1Eeph0Ydt1txD/Qar/uv8DDrpNIy0cN/V2AjCkUKEWgUQJYTborWHJkxLo4kzmlNikuq/eo1g4VRN31W8q1C3iFDDwF4VS4gQE9vxCtnxJyXQk39tQQPubERJyWqfbg4H7AShrhChHgQWIZYIEOjlVzWgR+an05+uTNFCNft1z9UnWBGtULuIUKsBBGowAsQm+q+DhzemOc9m6JlO0KeSsrYV5yrUNiLUGsCC1aLUgoyh5mkeevjRNBo3pRmlpJr+K7/2FWgOi3KFw0OEWkMgUCNY7p+aLwGeekYizVXe9S8DG1JikvkCgjbTzWGzFMEKh4oI9RBh72qEqwpSedHklBi6+oaGuv/atRtPR2Tvq631MYJQU0SotQQ3cyFO9F/vvq8pPb4og9LSPfrbRYgXhENFhFpLBJrERqwAgp31VAaNfKApNWwUqz+nKYIVDgURah3ATV0sExKIOndNolkL0um63ql6/rBlvgMmCNVGhFpHGA8b8LSpqbF0y22m/2qmIwpC9RGh1jH+CRC6yRtDaRke6nJhsm9wKRyV7hBcjAi1jmGPisAzmEK7qfiz/ybOiBR2gWewbsTkn8sLrxq6ujgUItQjiF20JiDWov+5JZWOPSFey5S/8Kf3uLh2mhsbvh7pob59j6dTTm2qH4G5FRFqBNDhmHia9EiafqSDr0tw69dUVnd4V86nyarJd8eOzWnp0kvpjjtOoYQEd1dVEWo9gsoIMWpPodY7n5+k5w7f3L+R76+wmf0BwfoOjBJMnkymuBzKyrzUvn0qLVhwIT3++PnUuLEZeMN+NyNCrUcCAlRBbcd6iJKTMbupAc15pgV17YZBJ+zx9W1jfLa+yu1kgvNg6T+X0ahRPI0b14meeuoiOuWUpgeI081iFaHWI1xXN20spZJifEsXldFUyJatPXTXvU3owWnNqU1b83YOQqCuOl+s5kZl/i7ONde0pyVLLqWePdtRUpLHXw4c3I4Itd6JoZXLC2lIn130y0+lulKaN3CMKE88NUF/ynS46r96lMfFt8JNvTXe2CnY04p1NHOLi8vp+OMbK4FeRqNHn6kEGqf2miawg7J2RBChRgBo8kKgU8fvoSnjd9P2reWqouILiCYeFRuzm554oQVd3zuVvOW+5q/P0QREEHm1G2lDMDcXA/qhrVun0Ny5XemZZy6iZs0SdT6NjcmDeNFgRKgRgq960qYNpfTgvdm0+Lk8ytmDuYZmD7wMPhbe6y+N9PzhjuckaZ0aEXBfV5tGFNCb0Zz59GpqajzdedeptHDhxdS5c4bOFwvUiFUEGg4RakRhlFZREUPvv1NAY+7MolUrC6mkhAVpKn2btnE0ZmIzun9yc2qWptwx9qnjsA92QMlWL+sDfxrU0req0mZR9+5t6LXXLqc+txxPKSlxOr1mnwj0YIhQIwpfZVWVGxW3vIzoufl5NGpIJv3yI/qvSsS+L0iAU89MoNkLM2jwiCa6+QxR2Os7C+bIEbgero10lpVV0LHHNqIXXuhOEyeeTYmJsTpvJg+2xApVIkKNMLRnUf8bkSlPqSr0vr0Vqu+6h2Y9nEN/6P4rLI2HjY8nuvhPyTT7mQy68toGeh+O1TI4wjow6TLN9PLyCmrZMpmmTetMTz99MbVrZ/4QF0C6+CYinrR6iFAjFK7AWnRqFdvf/6uEHhyVrf8AcV4uz3+FdyL97aa+gxrTtLnpdPJpCT4xsAh8g091BM5t0mn6yvCat912Ij37bDfq1q2V/lQN54dteFuoHiLUiCZQwQNCIHrnjXy6e2Amrf2sSD/KwaR+bg63bR9HD05PozGTzMfWtEh952FB1SacLvaiXbpk0LJlV9KgQSdRSgP0Q1mgeqHhOKH6iFAdgRGamZlkKjoe3Tw1Zy+NuzubNv9cpuPxQXB8LBwfVju9YyLNey6Dbh3SmOLw/FV/bC0g2EPFfijOA4GWlHh1P/SZZy6m6dO7KA9q+qH6NmE7AHHCoSFCdRQBoek6r/7ZuaOcHhq7mxY8lkO7dqr+K2ZEmF2UlBRDl/VI0V+XuOTPZjoiH8vrCNXFHAt7E+DN09KSaOLEs/Tc3JNOauLvh2I/3xhEoIePCNWB+Cs+hKP+86hfce3qYho7LJuWqWax+fP+RqzweOktPDTk7qb0f3PSqW2HOL0P1ERARqSm6Y0QqxTZq9cx9OKL3alHj7YUH+/R12Jh1uTcwsERoToWIwbjFX1RKu7Vl/bTnf120TdfFev9mMXEXq79MXE0fW4GjXqgKcUnqCay8ohaT/7jqwa2aOaecUZzevvtK2jYsNP0vFxct9onEQ4JEarDCfZeAa83b0YuTRydTb/9avqv6KNCsDA9u0uS7r/26tdQzx/Gfj5DOHBMaWkFdejQkObOu0C/ftagQZzvj2eZIwNpEOoCEWqUYIRiGyhS21t+Kddife7JPMra5dUDUGZ/jP586fW9G9L0JzKo8wVJKsp3XAgQON4JHTnydN0PPfecdH8T138toc4RoUYZQYJV4oPX+/TDQj0d8YN3CpRn5BFg2BK1au2hkeOa0uSZadS0WVxQCxYDUz16tNOvn6E/al4/M54T5xcveuSIUQUut8V6gkv+qTm59OWa4lr/3i//tEZQZr1Bw1gaPKwJnXteElWo/fCOsINpWRlRvNJqrBI37EtLjaADTVz7+YQjiXjUKAaCYoHxTaFgfwXNnZFDUyfs9j1/Nfsg2IQEnoMLsB2rX+rGKUyw94eFI4kI1RVAYPCwgfWf/mNep/vbM3m0Z3eFHgHGbvxrxBsIgJdC/SBCdQ0BbwjNYR1zcD98r5BGDMykD5YXQKUadprsQTkI9YcI1YVAdOwhlQT1Y5uXFu2j0UMz/ZMlhMhChOpS2ENCsFiFWLOzvPovzgmRhwjVxXCT1nhQadpGMiJUQXAAIlRBcAAiVEFwACJUQXAAIlRBcAAiVEFwACJUQXAAIlRBcAAiVEFwACJUQXAAIlRBcAAiVEFwACJUQXAAIlRBcAAiVEFwACLUiEJe2hbCI0KNAPCZUP3atiUftRbCI0Ktdyxqf2y8/hSKpf6zf89IPKzAiFDrEd9ni+jq6xvQ0y+1pE7nJFJJSYURrU+jEK14WUGEWs+Y7xbhb5kSjZ7YjB5+NI06KA9bVhYQJwtaBOteRKj1SsBb8lcBTz4tgSbNSKPBwxpTk6Ye/XdiDGqpTESs7kSEWq/YPm6N/31ixd8uvfzqFJr3fAb9uWcD8np9tvjXmIhgXYYINQKBCCFa9FVvvb2x/lump3VM8P3RJvN5TwgWdiJYdyBCjTDYw7IA8Ueb0jM8dP/kZio0pzbtPFRehj/7ZlwrBKubxUJUI0KNUFiwWoRGjXRW50Sa8lg69R3cmBqkwqXqaB/iXaMZEWqE4xerJobi44muuq4BPfX3FtTt8hQqzK+gWGVjWSxsZS2CjTpEqA4gyLsq8IeG0X8ddFdjmvNsCzrxtHgqL69QNsarGr2Kh40mRKgOwi5YLCHYdkfH0QNTm9M945pSy9Ye8nohzsCAkxAdiFAdiBErMIIF512YTNPnZlDvvo0oIYFFakQtOB8RqoNh7wowOhyn+q/X9U6lJ//Wgi7snkzFxZiOaLyrNIWdjQjV4UCsCCxC9F2TU2JoyIgmysOm07EnxvubwwFEsE5DhBolsGADgeg4JVJMR7zz3ibUPD3WNx0RnlX9q/4x4hbROgERahQDsYKLVDN49sIMuv6mhlSuvCviTYCBz0iIaESoUQp7VnhMLD0eov/to/qvf21JnbsmU0kx4o13FSIfEWqUYxcrBpaaNY+l4fc1oYmPNKf2R5v+q7ERIhkRqguwCxHr2DztzESaMjtdv07XsJEZjBK9Ri4iVBfBIg2sW9T9ihR64oUWdF2vVCoqxGR/IRKJUXdS6aW4jOCfHMq1qEJpdNcOL6W38FB8vImTJnHkIEJ1Ofj5IUgsURPs2hShRg7S9HU5djGKLiMX8aiC4ADEowqCAxChCoIDEKEKggMQoQqCAxChCoIDEKEKggMQoboAfgJnJjUEAscJkY88R3UJ+JkrME/QRiw+B6HgmUkyEylycYxQ7cmsjSRzpYzmysnlhOX+/fvpjz/+oJKSEi3QpKQkatWqFTVs2FBvi0gjG0cKtby83Ld26Hg8Hl1Bcd5oq6T2svJ6vTRv3jyaMWMG7dmzxxdraNKkCc2ZM4f69++vt0WskYvjhPrbb7/RNddco9cPJ+mjRo2iwYMH+5t/0QSXC25oN9xwA61YsYLKysp0XKgYX375ZerVq5deF6FGLo4SKsKmTZuoY8eOVFpa6ttTcyDOadOm0X333ac9azSC/ui6deuoa9eu/rIDdjFi/euvv6ZOnTrpdRFq5OI4d8KViSuWPYSjunbRyEcffRQk0ri4OOrXr59u7uJGdfPNN+t+qhD5OE6o6HPBm3IFtIdwhLODt8GgSrSCPIL169cHNe1PPvlkeu6552j48OE0duxY+sc//qGFGo3N/2jDcX1UCOzHH3/U66GMGDGCvvjiCy1EeE4MlixfvlyPcIbSunVrysjICPKw9qLgeMSF88KVxQPex+eryg6wLduFHsfbTDi70OMRrr32Wnr//ff1zQ37rr/+enr99df1eug5QuFzMqH2vG0H+w4WfzCb0PPzNrDvZw5mx/udjiNHfUOfBwLEoWJi4ISFmpaWRj///DOlpqYe8INhm39QXjKh8Vja45nQYxiODxcHqrK1X8N+DGPfD+wj16HHhQr1xhtvpFdeeUXvY/i6AOtcdvZr2LdD7e3xWA89jgl3fFW29nMzbMP7KrMDdttowDFCBZUlFT8GRjgxGmwXanp6uhYqnhWG+8Fgxx4anvenn36iXbt2aft27drR5ZdfThdccIH2zKHNw+3bt9OqVat0vw/nOeecc+j444/Xady9e7ceTb344ovp9NNPp3379tG7776rB66w/4QTTqCzzz5bC2jv3r30z3/+k5o1a0ZXX321TifSlJmZSd999x19//339Ouvv+ptNPkbN25MRx99tL7eZZddRi1atNDHIODcyC+Oi4+Pp+nTp+vjkT5w3nnn0ciRI/3liHh42eTkZP92fn6+bjJD4Bhh37lzp77RoQVy/vnn0yWXXEJt27bV1+ObBJOVlUUffvihzifOdcYZZ9Cpp56q13NycuiNN96gc889Vw8G4rkuygTnQDl0795d54XLZOPGjfTpp5/q3wR5b9++PQ0aNIg6d+6syxzk5eXpNMLuhx9+oG3btlGjRo3oqquuor59++qWFJcLlo5GZSIqKCsrs6688kpL/fCoOZb6YSzVtLXUj26pH99nZVAVx1LCtjZs2GCdcsoplqrU+jh7UJVNByV2680339TnwHF87LJly/Q1OKg+n1VQUGDdddddlhKTjlPey1Kis5RYgmxvuukmHT958mRLeX19vfHjx+s84DozZ860lHiC0hGaNizVDUWfg9OG5eOPP6734zooh9DAacDxiYmJlrox6fzgWOTpqKOOspQQKr1mSkqKpcRtFRUVBZUJ1pVI/edHGDp0qLYbNWqULhOcY+HChTrvSlhBtpMmTbI++OADSwnRUmLTtvY0YB3pevLJJ61NmzZZN9xwg9W8eXP92+F4uy3s1A1Flyenz+m4UqjYVndfq2XLltoetnyMvTJjnc/31ltv+c9jFyr2IRx33HGW8pT+82H54IMP+oXKdggQQ6dOnYJsb775Zn1eVKr33nvPv4/38zoCnwfrymtYb7/9tk4bwty5c3WltdvZA58D58Sxubm5+rpLlizRFTz0/BxC45B+5UH1NUOFyrbHHHOMdfLJJ+trYRvLBx54wFItAy1UtkPADcCeT/s+DohX3l3foNiuMluE1atX+8vU6bhquE/lVwf141GPHj10U039iP6mEZqjmCDQrVs33cREHParik/jxo3TTVLYhgPN019++cV/PoTKBr3QROMmKZ8PtrzdoUMH3SREEw9NYjQ10YRW3p+aNm3qb8bBFmkaM2aMfyQcTV401ZW30et2EhIS9PkQcB704ZVX1VMLb7/9dt3s5PTg+mhGtmnTRtuhDHBd7EdA+p9++mkdx+kBfDxAsxRNV+SLwbbdnlGeN6jsYIM0hJ4bTXME+3VghxCK8tBh4x2JynBUUB2PqiqCXkfTCXawYdtHH31U2zBoFqP5abf5+OOP9XXCeVQOOC88mhKbpfqw2nuEelQOOB628OyqT6vThrBnzx5r+PDh1po1a/T17CA/8Nyh196yZYvfe/B5evbsqc/P1+rVq1fQfqwDeGH7uZCHfv36WUoQej/svvjiC90N4OvCBnksLCzU+3FteFT7eThwPtUNR9sgT6EeFYF/E3hM1f+2Zs2apfMQmlfeRtMdnn3ChAm664Ftu83AgQP9eXQ6rhMqwooVK/w/NpbKu2hxcOXlcO211wbZzZ49W1fIqoTaqlUra/ny5db+/fu1HdJVmVBRIRcvXuxvfuKanE6kBXH2NGEd4dtvv/ULkMM333xzgO1VV10VJNQbb7zRv4/tEPr27es/D+y6dOlywLVxw3nppZeC8oxzI29sW5lQ8Tug67Bv3z5tixBOqKrVoMcDuEkNO3Qd0K2wX1d5eZ0WdF+QLtgB5JdtUA+wjbRHA6580o3J6Srvvi3SzT80CxHHAWCkk9exxHGqAvjj7KCZikkEaNqpGwY1aNDA31wMBybCY4T2lltu0U1M2AI+N47jYxFnvyaawqpPF3RuNIGrS2iaMNKNfAFcB01spIfjANYvvPDCoGfSSgS0Y8eOsOUBcAwmV6BMMCKPMrGf0w6uh8kY1113nW62I42wRfPd/ngNy1tvvZX69OmjJ2ug3PmcGK23U1m6nIgrhYr+nB1199ZziFGh0FfkgEcIdgoKCg6o5ABxqEyTJ0/2V0bEVVVRpk6dqvt+sIO93RbrCHj8ACFs3bo1KOBRB8PpqWmltOejuLjYt2aAUEKBPfq+/MiDqewGARs89lHNUn0jQh5ZUJXB+T6YHeAydguuFKodVIzs7GxSzT0688wzg8KSJUt8VoaDVQzVzNU21RENKnhlFRICxfNNPMtVzT468cQTgwIGlnATqak4q4v9vPY81/R6sMdN0V4m1REXbKtjB6pr53RcL1QGzTh7gJcFqAgcqsuh2GKJCvr777/rt1kwAQMeHBVd9cGCAm4ITqOuys8tiFAV8Gx4HFNVQP8H/aG6gr0I+mlo3uJmgTgENKvRTLYHqczuwlVC5cptr+RYx1RDPPPbvHkzbdmyJWz473//S1OmTKlRs6wm8DlXr14ddH4808W18eyVA57Zot9XW+kIbYLjJsEgvwzfOOzURVkIB+IqoXIlw4ipHTRzUeEwWMIeFEKwe1SE0IGUuiA3N9e3ZkSA+a3szTmwt60t4LHt58NNC3Ac0oEywk0C85bttjhWqHtc2fTFbBtUPgRUOlS+0FlEdi8DGx7xtVfSugCPieygj4prct8Z67BBWg4XPgcGqDhfiPvyyy/1LCuOw3VRHo899liQHUR60kknVTooJtQerithVDo8h7T3NzE4g6mDCxcupI8//pjWrFlDb731Fi1evJgmTZpEPXv21M/ucGxtCKQqMjIy/GLAcunSpdqT4Q0SDDR98skn+r1b3DjY7nDAOS699FJ/vrCNqZUY0Bo9ejQtWrSIZs2aRVdccYUuD74m7PE2Dp5l1nWZCApV8FFBTWYmYVsJT09Chy3b83powBsamC6Ht2NwLGbC2GcmYamazVZeXp7/WgDXgm24mUmqn3mALcCkdbtduHQhj/ZrY/n555/r89nzWNnMJL4W2yEo0QWVh/3cCFyuHI/w0Ucf+fOApX1mEvZjor26ufhtGJRJ6MwkpFN5cv8sI8Bp7dixY9DvijeNeL99ibeS+Hyw79Gjh3+f04kqj6p+nAOC+mF9ewMgDp4C75ti3W6HpX0d+1RF0xPX0XdTZebfB+zX4bhw8Lns9nawrSoVDR06VI/qssfH9fjcmL2DJeKqM4mAj+HrhbNFPMC7omjGsh1fh8E6x2MmF0anL7rooiA7rPPxbIsQDrutPY3hYLvqnJPtuKyihagRKn4UVN6jjjpKTxRA8zb0MQbWeRs/JJq38+fP1y8jY7CI97MNBp3Qn8UL4Pfff78eHUYlAOgn4hq4FkLLli2DjrUD0bEdBz4Pw4LE9fBRMrxgjWuwHQayMPlhyJAhtHbtWv25U1yfQ+ibMgBvyOB8fE2Ujx1OLwLSj68W4mXzs846S/c/EY/r8xLn6t27N61cuVJPgbR3H5B+pIHLHwFTMFHO4QgtExyHOFwrFPyOXNZYYvZXOJA/tsP5kP9owVFfeKiKqrIR+uOzKLDkdcwGwvNLnjaIioovDqAC2+2Bfd1OVdcJJZwtQDw8K5Z4LIMphBAs0oHKB7A/VOh2qrqm/ToMx2HJ8ZjXjK87qK6DvkngRoYvS0BMuD4EaL9GVdcMR3Vtw9kxbF+VDVNZOpyCK4QKQn8ouz32ofIhzh7P3gRgiX28DIfdBlRmZ4dtGT4G8UgTArCnJRx8bV4HVaUzlFBbbHMAOIbTgDj7OUKPDSX0erVpz+mpitDzOZGoEerhEq4Y6vMHru/0hF4/Giq7kxGhCoIDiJrBJEGIZkSoguAARKiC4ABEqILgAESoguAARKiC4ABEqILgAESoguAARKiC4ABEqILgAESoguAARKiC4ABEqILgAESoguAARKiC4ABEqILgAESoguAARKiC4ABEqILgAESoguAARKiCEPEQ/T99ARxFgiC0IwAAAABJRU5ErkJggg==;" vertex="1" parent="1">
          <mxGeometry x="50" y="500" width="104" height="91.56" as="geometry" />
        </mxCell>
        <mxCell id="rEkeLuR79YIxHpT1Y_Z6-13" value="" style="endArrow=classic;html=1;rounded=0;entryX=0.004;entryY=0.448;entryDx=0;entryDy=0;entryPerimeter=0;" edge="1" parent="1">
          <mxGeometry width="50" height="50" relative="1" as="geometry">
            <mxPoint x="150" y="550" as="sourcePoint" />
            <mxPoint x="272.9200000000001" y="550" as="targetPoint" />
          </mxGeometry>
        </mxCell>
        <mxCell id="rEkeLuR79YIxHpT1Y_Z6-15" value="" style="shape=image;html=1;verticalAlign=top;verticalLabelPosition=bottom;labelBackgroundColor=#ffffff;imageAspect=0;aspect=fixed;image=https://cdn4.iconfinder.com/data/icons/ionicons/512/icon-social-github-128.png" vertex="1" parent="1">
          <mxGeometry x="320" y="300" width="70" height="70" as="geometry" />
        </mxCell>
        <mxCell id="rEkeLuR79YIxHpT1Y_Z6-16" value="GitHub as Code Repo" style="text;html=1;align=center;verticalAlign=middle;resizable=0;points=[];autosize=1;strokeColor=none;fillColor=none;" vertex="1" parent="1">
          <mxGeometry x="400" y="330" width="140" height="30" as="geometry" />
        </mxCell>
      </root>
    </mxGraphModel>
  </diagram>
</mxfile>
